<svg xmlns="http://www.w3.org/2000/svg" height="24" viewBox="0 -960 960 960" width="24"><path d="M153.804-205.065q-46.929 0-80.051-33.122Q40.63-271.31 40.63-318.239v-325.283q0-46.594 33.123-79.884 33.122-33.29 80.051-33.29h654.153q46.929 0 80.051 33.29 33.123 33.29 33.123 79.884v325.283q0 46.929-33.123 80.052-33.122 33.122-80.051 33.122H153.804Zm0-113.174h654.153v-325.283H153.804v325.283Zm111.435-111.435v9.261q0 21.043 14.969 36.065 14.97 15.022 36.185 15.022 21.216 0 36.118-15.022 14.902-15.022 14.902-36.065v-9.261h9.261q21.187 0 36.137-14.969 14.95-14.97 14.95-36.185 0-21.215-14.95-36.118-14.95-14.902-36.137-14.902h-9.261v-9.5q0-21.043-14.921-36.065-14.921-15.022-36.065-15.022t-36.166 15.022q-15.022 15.022-15.022 36.065v9.5h-9.261q-21.187 0-36.137 14.921t-14.95 36.065q0 21.145 14.95 36.166 14.95 15.022 36.137 15.022h9.261Zm311.631 61.109q25 0 42.5-17.5t17.5-42.5q0-25-17.5-42.5t-42.5-17.5q-25 0-42.5 17.5t-17.5 42.5q0 25 17.5 42.5t42.5 17.5Zm120-103.87q25 0 42.5-17.5t17.5-42.5q0-24.761-17.5-42.38-17.5-17.62-42.5-17.62t-42.5 17.62q-17.5 17.619-17.5 42.38 0 25 17.5 42.5t42.5 17.5ZM153.804-318.239v-325.283 325.283Z"/></svg>